<?xml version="1.0" encoding="UTF-8"?>
<svg viewBox="0 0 162 70" xmlns="http://www.w3.org/2000/svg">
<rect y="8" width="54" height="54" rx="5" fill="#FF7A92"/>
<path d="m31.32 51.072c-5.12 0-9.12-1.376-12-4.128s-4.32-6.64-4.32-11.664c0-3.424 0.672-6.448 2.016-9.072 1.376-2.624 3.312-4.64 5.808-6.048 2.496-1.44 5.376-2.16 8.64-2.16 2.656 0 5.216 0.48 7.68 1.44l-1.296 6.192c-2.176-0.992-4.288-1.488-6.336-1.488-2.912 0-5.216 0.96-6.912 2.88-1.696 1.888-2.544 4.416-2.544 7.584 0 3.232 0.896 5.744 2.688 7.536s4.272 2.688 7.44 2.688c2.08 0 4.096-0.336 6.048-1.008l1.056 5.904c-2.336 0.896-4.992 1.344-7.968 1.344z" fill="#fff"/>
<path d="m61.12 13.96h6.768v13.92c0.992-1.472 2.128-2.544 3.408-3.216 1.28-0.704 2.752-1.056 4.416-1.056 2.656 0 4.736 0.8 6.24 2.4 1.504 1.568 2.256 3.76 2.256 6.576v16.416h-6.768v-15.36c0-1.28-0.32-2.272-0.96-2.976-0.64-0.736-1.504-1.104-2.592-1.104-1.184 0-2.32 0.416-3.408 1.248-1.056 0.8-1.92 1.872-2.592 3.216v14.976h-6.768v-35.04zm40.768 35.76c-2.4962 0-4.7042-0.544-6.6242-1.632-1.888-1.088-3.36-2.608-4.416-4.56-1.056-1.984-1.584-4.272-1.584-6.864s0.512-4.864 1.536-6.816c1.056-1.984 2.528-3.52 4.416-4.608 1.92-1.088 4.128-1.632 6.6242-1.632 2.496 0 4.688 0.544 6.576 1.632 1.92 1.056 3.392 2.56 4.416 4.512 1.056 1.952 1.584 4.208 1.584 6.768 0 2.592-0.528 4.896-1.584 6.912-1.024 1.984-2.496 3.536-4.416 4.656-1.888 1.088-4.064 1.632-6.528 1.632zm-0.048-5.856c1.728 0 3.104-0.656 4.128-1.968 1.056-1.344 1.584-3.104 1.584-5.28s-0.528-3.904-1.584-5.184c-1.024-1.312-2.4-1.968-4.128-1.968s-3.1202 0.656-4.1762 1.968c-1.024 1.28-1.536 3.008-1.536 5.184s0.512 3.936 1.536 5.28c1.056 1.312 2.4482 1.968 4.1762 1.968zm17.737-19.584h6.768v4.032h0.384c0.928-1.632 1.84-2.832 2.736-3.6 0.928-0.768 2.08-1.152 3.456-1.152 0.576 0 1.056 0.064 1.44 0.192l-0.72 7.296c-0.832-0.224-1.504-0.336-2.016-0.336-0.736 0-1.392 0.144-1.968 0.432-0.544 0.288-1.04 0.672-1.488 1.152-0.416 0.48-1.024 1.216-1.824 2.208v14.496h-6.768v-24.72zm25.795 13.968v10.752h-6.768v-35.088h6.768v19.392l7.728-9.024h8.016l-9.888 11.088 10.416 13.344-7.344 1.008-8.928-11.472z" fill="#1F2630"/>
</svg>
